<?xml version="1.0" encoding="UTF-8"?>
<svg id="Layer_1" data-name="Layer 1" xmlns="http://www.w3.org/2000/svg" viewBox="0 0 1053.96 1203.19">
  <defs>
    <style>
      .cls-1 {
        fill: #0a934d;
      }

      .cls-1, .cls-2, .cls-3 {
        stroke-width: 0px;
      }

      .cls-2 {
        fill: #e7b434;
      }

      .cls-3 {
        fill: #c97419;
      }
    </style>
  </defs>
  <rect class="cls-1" x="0" y="-5.11" width="1053.28" height="1208.29"/>
  <g>
    <g>
      <g>
        <g>
          <polygon class="cls-2" points="1040.82 853.49 1039.72 853.67 719.06 853.67 737.95 804.61 1040.82 853.49"/>
          <polygon class="cls-2" points="334.24 853.67 13.58 853.67 12.48 853.49 315.34 804.61 334.24 853.67"/>
        </g>
        <polygon class="cls-2" points="575.69 642.36 526.65 661.25 526.47 661.18 477.6 642.36 526.47 339.49 575.69 642.36"/>
      </g>
      <g>
        <polygon class="cls-2" points="415.86 667.16 171.04 482.29 345.04 735.03 393.53 714.74 415.86 667.16"/>
        <polygon class="cls-2" points="645.28 672.06 897.77 497.8 713.15 742.88 665.57 720.54 645.28 672.06"/>
      </g>
      <g>
        <path class="cls-2" d="M713.66,733.62c.62-8.15,29.05-23.32,35-25.7,62.01-24.86,126.66-6.64,190.45-13.86,12.8-1.46,25.59-5.03,37.64-9.62,8.27-3.17,20.64-7.81,29.86-13.51,2.73-1.68,5.19-3.46,7.19-5.31-.99.99-1.98,1.97-3,2.95-13.8,13.4-29.28,25.4-45.21,35.97-14.8,9.82-31.82,18.38-48.86,24.45-17.72,6.31-36.94,7.08-54.81,13-12.9,4.27-25.61,9.33-37.93,15.03-21.42,9.9-57.15,35.47-62.68,61.27l-43.49-13.37s-.01-.29-.04-.84c-.03-.44-.07-1.05-.11-1.79-.76-12.87-3.99-68.6-3.99-68.66Z"/>
        <path class="cls-3" d="M713.66,733.62c.62-8.15,29.05-23.32,35-25.7,62.01-24.86,126.66-6.64,190.45-13.86,12.8-1.46,25.59-5.03,37.64-9.62,8.27-3.17,20.64-7.81,29.86-13.51,2.73-1.68,5.19-3.46,7.19-5.31.11.4-1.25,1.6-3,2.95-2.64,2.08-6.2,4.5-6.86,5-18.32,13.86-38.92,24.6-60.54,32.3-7.99,2.85-16.12,5.29-24.37,7.27-9.29,2.24-18.48,4.2-28.06,4.52-9.71.33-19.44-.19-29.12.85-12.07,1.32-24.07,3.52-35.78,6.76-32.28,8.88-66.7,22.73-89.13,48.68-7.79,9.03-14.14,19.27-19.18,30.14-.03-.44-.07-1.05-.11-1.79-.76-12.87-3.99-68.6-3.99-68.66Z"/>
      </g>
      <g>
        <path class="cls-2" d="M407.84,667.5c-8.15-.62-23.32-29.05-25.7-35-24.86-62.01-6.64-126.66-13.86-190.45-1.46-12.8-5.03-25.59-9.62-37.64-3.17-8.27-7.81-20.64-13.51-29.86-1.68-2.73-3.46-5.19-5.31-7.19.99.99,1.97,1.98,2.95,3,13.4,13.8,25.4,29.28,35.97,45.21,9.82,14.8,18.38,31.82,24.45,48.86,6.31,17.72,7.08,36.94,13,54.81,4.27,12.9,9.33,25.61,15.03,37.93,9.9,21.42,35.47,57.15,61.27,62.68l-13.37,43.49s-.29.01-.84.04c-.44.03-1.05.07-1.79.11-12.87.76-68.6,3.99-68.66,3.99Z"/>
        <path class="cls-3" d="M407.84,667.5c-8.15-.62-23.32-29.05-25.7-35-24.86-62.01-6.64-126.66-13.86-190.45-1.46-12.8-5.03-25.59-9.62-37.64-3.17-8.27-7.81-20.64-13.51-29.86-1.68-2.73-3.46-5.19-5.31-7.19.4-.11,1.6,1.25,2.95,3,2.08,2.64,4.5,6.2,5,6.86,13.86,18.32,24.6,38.92,32.3,60.54,2.85,7.99,5.29,16.12,7.27,24.37,2.24,9.29,4.2,18.48,4.52,28.06.33,9.71-.19,19.44.85,29.12,1.32,12.07,3.52,24.07,6.76,35.78,8.88,32.28,22.73,66.7,48.68,89.13,9.03,7.79,19.27,14.14,30.14,19.18-.44.03-1.05.07-1.79.11-12.87.76-68.6,3.99-68.66,3.99Z"/>
      </g>
      <g>
        <path class="cls-2" d="M713.66,733.62c.62-8.15,29.05-23.32,35-25.7,62.01-24.86,126.66-6.64,190.45-13.86,12.8-1.46,25.59-5.03,37.64-9.62,8.27-3.17,20.64-7.81,29.86-13.51,2.73-1.68,5.19-3.46,7.19-5.31-.99.99-1.98,1.97-3,2.95-13.8,13.4-29.28,25.4-45.21,35.97-14.8,9.82-31.82,18.38-48.86,24.45-17.72,6.31-36.94,7.08-54.81,13-12.9,4.27-25.61,9.33-37.93,15.03-21.42,9.9-57.15,35.47-62.68,61.27l-43.49-13.37s-.01-.29-.04-.84c-.03-.44-.07-1.05-.11-1.79-.76-12.87-3.99-68.6-3.99-68.66Z"/>
        <path class="cls-3" d="M713.66,733.62c.62-8.15,29.05-23.32,35-25.7,62.01-24.86,126.66-6.64,190.45-13.86,12.8-1.46,25.59-5.03,37.64-9.62,8.27-3.17,20.64-7.81,29.86-13.51,2.73-1.68,5.19-3.46,7.19-5.31.11.4-1.25,1.6-3,2.95-2.64,2.08-6.2,4.5-6.86,5-18.32,13.86-38.92,24.6-60.54,32.3-7.99,2.85-16.12,5.29-24.37,7.27-9.29,2.24-18.48,4.2-28.06,4.52-9.71.33-19.44-.19-29.12.85-12.07,1.32-24.07,3.52-35.78,6.76-32.28,8.88-66.7,22.73-89.13,48.68-7.79,9.03-14.14,19.27-19.18,30.14-.03-.44-.07-1.05-.11-1.79-.76-12.87-3.99-68.6-3.99-68.66Z"/>
      </g>
      <g>
        <path class="cls-2" d="M311.44,806.71c-6.2,5.33-37.03-4.05-42.92-6.57-61.43-26.27-94.26-84.87-144.47-124.86-10.09-8.02-21.65-14.54-33.42-19.81-8.09-3.61-20.11-9.07-30.67-11.57-3.12-.74-6.11-1.23-8.84-1.32,1.4,0,2.79,0,4.21.04,19.23.28,38.67,2.75,57.41,6.53,17.41,3.52,35.49,9.5,51.84,17.26,16.99,8.07,31.12,21.12,47.95,29.57,12.14,6.1,24.71,11.51,37.45,16.19,22.15,8.15,65.49,15.33,87.65,1l21.3,40.21s-.19.21-.56.62c-.29.33-.69.79-1.19,1.34-8.57,9.64-45.69,51.33-45.73,51.37Z"/>
        <path class="cls-3" d="M311.44,806.71c-6.2,5.33-37.03-4.05-42.92-6.57-61.43-26.27-94.26-84.87-144.47-124.86-10.09-8.02-21.65-14.54-33.42-19.81-8.09-3.61-20.11-9.07-30.67-11.57-3.12-.74-6.11-1.23-8.84-1.32.2-.36,2.02-.24,4.21.04,3.34.4,7.56,1.2,8.38,1.31,22.76,3.15,44.92,10.12,65.64,19.97,7.66,3.63,15.14,7.66,22.37,12.09,8.16,4.98,16.03,10.1,23.03,16.65,7.1,6.63,13.61,13.88,21.19,19.99,9.47,7.6,19.51,14.52,30.08,20.52,29.11,16.55,63.24,31.09,97.45,28.6,11.9-.88,23.63-3.63,34.87-7.75-.29.33-.69.79-1.19,1.34-8.57,9.64-45.69,51.33-45.73,51.37Z"/>
      </g>
      <g>
        <path class="cls-2" d="M574.45,637.22c-5.33-6.2,4.05-37.03,6.57-42.92,26.27-61.43,84.87-94.26,124.86-144.47,8.02-10.09,14.54-21.65,19.81-33.42,3.61-8.09,9.07-20.11,11.57-30.67.74-3.12,1.23-6.11,1.32-8.84,0,1.4,0,2.79-.04,4.21-.28,19.23-2.75,38.67-6.53,57.41-3.52,17.41-9.5,35.49-17.26,51.84-8.07,16.99-21.12,31.12-29.57,47.95-6.1,12.14-11.51,24.71-16.19,37.45-8.15,22.15-15.33,65.49-1,87.65l-40.21,21.3s-.21-.19-.62-.56c-.33-.29-.79-.69-1.34-1.19-9.64-8.57-51.33-45.69-51.37-45.73Z"/>
        <path class="cls-3" d="M574.45,637.22c-5.33-6.2,4.05-37.03,6.57-42.92,26.27-61.43,84.87-94.26,124.86-144.47,8.02-10.09,14.54-21.65,19.81-33.42,3.61-8.09,9.07-20.11,11.57-30.67.74-3.12,1.23-6.11,1.32-8.84.36.2.24,2.02-.04,4.21-.4,3.34-1.2,7.56-1.31,8.38-3.15,22.76-10.12,44.92-19.97,65.64-3.63,7.66-7.66,15.14-12.09,22.37-4.98,8.16-10.1,16.03-16.65,23.03-6.63,7.1-13.88,13.61-19.99,21.19-7.6,9.47-14.52,19.51-20.52,30.08-16.55,29.11-31.09,63.24-28.6,97.45.88,11.9,3.63,23.63,7.75,34.87-.33-.29-.79-.69-1.34-1.19-9.64-8.57-51.33-45.69-51.37-45.73Z"/>
      </g>
      <polygon class="cls-3" points="575.69 642.36 526.65 661.25 526.47 661.18 526.47 339.49 575.69 642.36"/>
      <g>
        <polygon class="cls-3" points="713.14 742.88 665.57 720.54 665.5 720.36 897.77 497.8 713.14 742.88"/>
        <polygon class="cls-3" points="345.04 735.03 393.52 714.74 393.6 714.57 171.03 482.3 345.04 735.03"/>
      </g>
    </g>
    <g>
      <path class="cls-3" d="M526.64,622.48c-127.47,0-231.17,103.71-231.17,231.19h19.87c0-116.52,94.79-211.32,211.31-211.32s211.32,94.8,211.32,211.32h19.87c0-127.47-103.71-231.19-231.19-231.19Z"/>
      <path class="cls-2" d="M748.29,853.67h-443.45c0-122.46,99.26-221.74,221.73-221.74s221.73,99.28,221.73,221.74Z"/>
      <path class="cls-3" d="M735.65,852.56v.74c-10.9-105.83-100.35-188.4-209.07-188.4s-198.2,82.56-209.1,188.4v-.74c0-115.46,93.61-209.08,209.1-209.08s209.07,93.62,209.07,209.08Z"/>
    </g>
    <path class="cls-3" d="M1050.74,853.24c-.23-288.8-235.25-523.68-524.1-523.68S2.77,564.44,2.54,853.24h0v20.39h1048.21v-20.39h0ZM526.64,349.43c277.9,0,504,225.97,504.24,503.81H22.42c.23-277.84,226.33-503.81,504.22-503.81Z"/>
  </g>
</svg>